# xmcd
#
# Track frame offsets: 
#        150
#        21644
#        40521
#        58094
#        75062
#        93948
#        109547
#        128836
#        142301
#        166706
#        183138
#        200873
#        217815
#
# Disc length: 3302 seconds
#
# Revision: 0
# Processed by: cddbd v1.5.2PL0 Copyright (c) Steve Scherf et al.
# Submitted via: ExactAudioCopy v1.3
#
DISCID=a70ce40d
DTITLE=Frank Bey - All My Dues Are Paid
DYEAR=2020
DGENRE=Blues
TTITLE0=Idle Hands
TTITLE1=One of These Days
TTITLE2=Calling All Fools
TTITLE3=It's a Pleasure
TTITLE4=All My Dues Are Paid
TTITLE5=He Stopped Loving Her Today
TTITLE6=I Bet I Never Cross Your Mind
TTITLE7=Never No More
TTITLE8=Ha Ha in the Daytime
TTITLE9=If It's Really Got to Be This Way
TTITLE10=Perfect Day
TTITLE11=One Thing Every Day
TTITLE12=Imagine
EXTD=
EXTT0=
EXTT1=
EXTT2=
EXTT3=
EXTT4=
EXTT5=
EXTT6=
EXTT7=
EXTT8=
EXTT9=
EXTT10=
EXTT11=
EXTT12=
PLAYORDER=
